<?xml version="1.0" standalone="no"?><svg xmlns="http://www.w3.org/2000/svg" viewBox="0 0 1440 320"><path fill="#e7defd" fill-opacity="1" d="M0,160L26.7,176C53.3,192,107,224,160,229.3C213.3,235,267,213,320,192C373.3,171,427,149,480,165.3C533.3,181,587,235,640,224C693.3,213,747,139,800,122.7C853.3,107,907,149,960,149.3C1013.3,149,1067,107,1120,101.3C1173.3,96,1227,128,1280,138.7C1333.3,149,1387,139,1413,133.3L1440,128L1440,0L1413.3,0C1386.7,0,1333,0,1280,0C1226.7,0,1173,0,1120,0C1066.7,0,1013,0,960,0C906.7,0,853,0,800,0C746.7,0,693,0,640,0C586.7,0,533,0,480,0C426.7,0,373,0,320,0C266.7,0,213,0,160,0C106.7,0,53,0,27,0L0,0Z"></path></svg>